PathFileType	4	(X/Y/Z)	C:/Users/beibeiliu/ov580/test_trc/User1\sequence.6_training_dense_right.trc
DataRate	CameraRate	NumFrames	NumMarkers	Units	OrigDataRate	OrigDataStartFrame	OrigNumFrames
120	120	16	19	mm	120	174	277
Frame#	Time	ThumbCMC			ThumbMCP			ThumbIP			ThumbTip			IndexMCP			IndexPIP			IndexTip			MiddleMCP			MiddlePIP			MiddleTip			RingMCP			RingPIP			RingTip			PinkyMCP			PinkyPIP			PinkyTip			BackHand1			BackHand2			BackHand3	
		X0	Y0	Z0	X1	Y1	Z1	X2	Y2	Z2	X3	Y3	Z3	X4	Y4	Z4	X5	Y5	Z5	X6	Y6	Z6	X7	Y7	Z7	X8	Y8	Z8	X9	Y9	Z9	X10	Y10	Z10	X11	Y11	Z11	X12	Y12	Z12	X13	Y13	Z13	X14	Y14	Z14	X15	Y15	Z15	X16	Y16	Z16	X17	Y17	Z17	X18	Y18	Z18	
173	1.44167	148.133	148.351	13.9167	116.932	145.298	-8.43467	99.0905	141.703	-33.9796	82.9169	128.005	-52.0133	159.604	129.485	-68.7986	150.216	121.297	-90.838	135.688	110.282	-113.742	139.095	104.625	-65.6258	103.925	110.372	-62.2386	100.479	114.893	-22.2521	128.362	85.7744	-46.6156	97.3243	96.029	-36.9421	94.9292	107.341	-3.80347	126.825	67.1633	-26.4172	104.034	85.7248	-19.9114	112.147	109.476	3.97416	174.457	89.0072	-2.93837	184.234	92.5277	31.1237	182.969	127.584	6.7421	
174	1.45	147.667	150.477	15.2437	116.412	146.071	-11.2103	100.616	141.666	-30.3278	82.315	130.343	-50.7886	152.449	129.038	-69.0565	136.767	123.559	-89.2818	114.821	112.607	-108.606	139.493	103.804	-64.3895	105.308	107.679	-62.5718	98.6937	117.899	-23.1942	127.957	85.0369	-47.1371	94.4566	95.7752	-32.8763	96.0692	105.205	-1.89412	125.722	69.5715	-27.8494	103.608	85.4504	-17.9082	116.281	107.533	5.03512	176.916	88.6215	-5.33767	183.023	90.5332	31.072	181.954	125.535	8.26132	
175	1.45833	147.41	150.122	14.5466	116.534	147.051	-10.6321	100.664	143.535	-33.5253	87.382	130.128	-48.0833	148.352	128.724	-65.4758	128.377	123.558	-85.3502	102.03	117.925	-100.202	139.789	107.455	-64.1421	101.598	110.763	-59.793	98.8519	112.439	-23.4733	126.021	85.4925	-46.9691	96.3234	96.5194	-33.8326	98.2776	105.991	-5.67328	122.913	70.0433	-28.5372	104.906	88.3334	-17.0543	113.743	106.068	7.45251	176.811	86.348	-2.45229	181.821	94.2664	31.5731	183.615	124.32	6.6975	
176	1.46667	147.679	149.883	15.8499	118.174	148.008	-10.0424	101.643	144.151	-35.1365	89.7635	129.29	-50.5388	145.748	126.676	-65.6721	125.384	125.766	-83.5955	101.601	119.655	-94.3947	138.066	105.133	-65.3291	103.57	109.698	-60.857	98.7874	113.563	-22.7216	126.418	89.0685	-48.3135	98.7416	96.8307	-37.4593	99.9746	106.865	-1.84115	125.875	70.6133	-28.6634	102.771	83.5585	-16.4316	113.221	103.222	7.50658	174.398	87.4186	-6.031	182.92	93.5719	32.6444	180.644	125.339	7.81029	
177	1.475	145.955	152.448	16.584	115.257	150.092	-9.37319	104.046	140.357	-35.7293	85.1369	133.551	-52.9885	148.013	132.558	-67.5576	126.507	123.293	-86.2162	104.397	118.542	-97.8368	142.137	105.384	-63.4334	103.902	112.17	-62.481	97.3717	116.392	-22.5217	127.932	84.3617	-46.4975	97.3448	94.2164	-35.7988	99.5335	107.13	-3.8342	127.287	68.6641	-27.3927	104.903	86.0762	-20.8405	117.506	105.562	4.49806	176.296	90.3096	-1.51575	182.853	93.095	33.1344	182.409	127.969	9.58795	
178	1.48333	145.107	151.271	17.0145	113.971	148.557	-12.7367	98.8507	144.97	-35.8893	84.7801	133.191	-54.4673	153.06	135.737	-64.9152	136.949	128.169	-88.6656	114.465	121.772	-107.49	141.835	109.224	-63.945	106.498	111.323	-65.9532	96.558	115.96	-24.0003	126.891	89.8925	-48.7154	97.8413	93.2188	-35.3084	99.6493	104.857	-4.32571	130.488	73.3043	-30.0975	105.379	86.9174	-21.5789	111.853	104.283	4.97265	174.422	92.9098	-3.95983	182.31	94.2684	30.2795	179.13	126.885	8.36001	
179	1.49167	142.296	153.18	14.8797	113.089	147.385	-8.99229	99.6644	142.015	-30.5238	86.1039	130.834	-51.4204	156.593	136.265	-68.0398	145.393	136.691	-90.9233	132.209	124.526	-110.124	143.477	112.037	-63.9871	107.782	108.531	-65.8842	94.1367	111.81	-28.5004	129.373	88.0394	-48.0228	98.5405	98.0167	-35.4973	101.664	106.675	-2.56602	128.41	76.3195	-31.8672	106.78	86.8115	-22.4497	112.526	104.204	6.53958	175.544	93.5237	-2.63878	181.083	96.3328	33.0131	179.202	131.352	10.3074	
180	1.5	138.481	151.902	18.1934	107.852	147.461	-5.00181	96.1201	139.801	-32.2251	79.9433	129.909	-51.9048	158.596	141.309	-60.5048	152.875	138.165	-90.3371	146.041	134.745	-114.624	140.73	114.707	-64.0797	106.584	112.098	-64.8075	92.9379	110.052	-27.7931	132.324	94.7543	-48.0829	98.0289	95.1136	-33.1198	99.2837	103.621	-4.34799	135.128	75.4938	-31.3026	106.976	84.9841	-21.8764	111.436	100.953	6.3418	177.542	95.9659	-5.91305	183.288	100.42	34.906	177.807	134.866	12.4396	
181	1.50833	130.569	152.908	18.5232	102.029	144.538	-6.39261	90.183	137.511	-28.4929	79.8202	124.412	-49.936	154.63	150.498	-58.9428	152.888	147.576	-87.7044	151.231	142.588	-110.916	142.077	117.655	-62.1549	106.118	110.033	-64.923	90.6652	110.136	-27.8024	135.127	92.1447	-47.8419	100.786	90.6248	-35.6342	97.3592	102.551	-6.13719	135.382	75.2887	-32.5171	110.173	84.5097	-22.02	108.796	101.375	2.26127	176.705	108.062	-1.60311	181.677	109.164	32.4312	170.42	139.432	14.5415	
182	1.51667	121.42	154.214	22.1477	96.6326	140.364	-1.46268	84.4965	134.025	-32.8385	77.1894	119.056	-52.8248	148.781	157.977	-59.2903	150.02	154.847	-83.374	151.179	150.184	-106.667	139.552	124.611	-60.6004	108.134	108.631	-65.9693	89.7524	107.063	-27.2189	136.795	99.8459	-48.1976	101.764	88.903	-38.1227	97.2689	93.6671	-5.23043	138.94	78.5981	-34.5859	113.332	84.8405	-24.1031	108.594	101.756	-0.663946	176.631	115.103	-4.64631	179.772	112.642	35.1721	165.761	148.564	15.8724	
183	1.525	115.441	149.459	25.6792	90.9227	135.595	-2.19116	79.7142	130.467	-27.9809	74.6869	115.656	-51.7269	141.21	160.814	-50.605	139.818	164.563	-77.2693	143.977	164.49	-100.844	136.781	126.62	-59.5109	104.504	108.425	-64.1323	93.1606	101.18	-26.6636	133.376	100.408	-49.4886	102.575	88.6688	-37.8651	95.2317	91.5861	-7.95943	145.511	81.1216	-31.377	115.57	82.4757	-24.3734	111.013	105.668	0.483621	173.956	122.305	-1.4469	176.569	120.288	37.4802	156.07	153.472	17.8964	
184	1.53333	104.511	148.585	27.3002	86.8958	132.122	-1.36193	76.5887	126.077	-27.7582	75.9966	113.273	-49.5215	128.652	168.999	-48.2452	131.706	171.664	-73.9834	137.759	171.985	-95.5716	130.176	132.605	-58.6628	106.059	110.825	-63.7603	91.3803	99.4075	-25.0625	134.24	107.946	-45.8825	103.657	91.1084	-39.5742	96.2355	87.5357	-7.0832	146.317	90.5571	-31.1281	116.769	82.8453	-23.255	109.112	103.235	1.13329	166.229	130.722	2.69945	169.296	130.579	37.6617	145.521	155.588	23.2035	
185	1.54167	100.464	144.501	31.7716	79.5303	129.043	3.1712	76.509	123.067	-24.7751	74.0003	111.423	-49.9347	123.957	171.405	-46.6488	126.372	175.368	-67.3493	135.524	178.378	-95.807	123.514	138.062	-58.1439	101.85	110.775	-60.8462	92.0664	100.006	-27.5923	130.769	108.368	-46.7795	108.745	89.5429	-41.1645	94.6865	88.2616	-9.07162	146.737	94.9603	-30.7086	116.164	89.1846	-23.2296	109.048	106.621	0.139476	162.791	135.528	2.2063	165.878	130.313	43.1443	139.198	158.083	27.8809	
186	1.55	97.0472	143.306	33.3021	77.8706	127.884	1.53594	75.2952	122.558	-27.736	72.3461	110.937	-50.9668	119.666	172.736	-41.7267	122.694	178.22	-68.3977	131.391	181.116	-93.0287	123.887	140.483	-54.9306	100.809	115.088	-63.3348	91.4738	101.076	-23.0841	132.214	109.626	-46.8715	108.459	90.2074	-39.7871	95.7103	87.7706	-9.25198	145.302	91.3563	-30.3791	116.973	93.1252	-24.0007	107.735	112.175	-2.07921	160.567	137.529	5.73083	165.573	133.481	42.117	136.335	160.623	23.8058	
187	1.55833	95.4159	142.074	34.2523	79.9104	126.299	0.576363	71.6899	119.643	-25.1409	70.0769	108.397	-50.6123	120.198	170.931	-41.1092	120.122	180.147	-69.3248	129.381	180.52	-91.307	123.437	139.592	-54.2842	97.4064	112.964	-58.7868	94.2451	102.329	-21.3797	130.6	112.243	-46.9474	107.123	92.986	-41.104	96.397	87.4663	-6.74317	143.829	92.1102	-30.1258	115.408	90.7371	-20.291	107.762	114.494	2.18814	163.028	137.558	6.65644	163.288	135.949	40.2767	133.784	159.86	24.7717	
188	1.56667	94.9081	140.28	34.1581	74.7282	123.559	2.89643	72.7777	118.244	-27.7829	70.7244	105.67	-50.7887	114.788	171.878	-43.8622	116.532	173.89	-70.7198	122.874	175.028	-93.4893	120.077	139.603	-56.4511	103.502	110.629	-60.4244	96.4523	101.546	-19.0875	130.751	114.745	-45.515	109.232	89.7705	-40.6163	99.541	84.2496	-7.05495	145.758	98.4488	-30.5833	116.342	93.1367	-22.9101	108.377	115.481	0.933569	160.185	137.881	8.53542	161.199	138.647	40.1425	135.391	157.999	29.2527	
